<svg width="12" height="20" viewBox="0 0 12 20" fill="none" xmlns="http://www.w3.org/2000/svg">
<path d="M10.8918 8.18242C10.796 8.08594 10.69 8.00451 10.5798 7.93369L3.18651 0.54075C2.46494 -0.180136 1.29551 -0.180478 0.573596 0.541093C-0.147975 1.26232 -0.147975 2.43209 0.573596 3.15401L6.94114 9.52087L0.541435 15.9213C-0.180478 16.6421 -0.180478 17.8123 0.541435 18.5342C0.902391 18.8944 1.37488 19.0748 1.84738 19.0748C2.31987 19.0748 2.79339 18.8944 3.15332 18.5335L10.5798 11.1081C10.69 11.0372 10.7957 10.9561 10.8918 10.8593C11.2613 10.4898 11.4386 10.0047 11.4303 9.52087C11.4389 9.03674 11.2613 8.55091 10.8918 8.18242Z" fill="#22B573"/>
</svg>
