<svg width="42" height="25" viewBox="0 0 42 25" fill="none" xmlns="http://www.w3.org/2000/svg">
<path d="M18.3723 1.37338C18.165 1.57929 17.9899 1.80727 17.8377 2.04407L1.94704 17.9355C0.397537 19.4864 0.396802 22.0001 1.94777 23.5518C3.49801 25.1027 6.01236 25.1027 7.56407 23.5518L21.2492 9.86511L35.0065 23.6209C36.556 25.1726 39.0711 25.1726 40.6228 23.6209C41.3972 22.845 41.7847 21.8294 41.7847 20.8138C41.7847 19.7982 41.3972 18.7804 40.6213 18.0068L24.6608 2.04407C24.5086 1.80727 24.3343 1.58003 24.1262 1.37338C23.3319 0.579138 22.2891 0.198198 21.2492 0.215848C20.2086 0.197463 19.1644 0.579138 18.3723 1.37338Z" fill="white"/>
</svg>
