<svg width="1440" height="438" viewBox="0 0 1440 438" fill="none" xmlns="http://www.w3.org/2000/svg">
<path fill-rule="evenodd" clip-rule="evenodd" d="M1440 438L1380 430.903C1320 423.806 1200 408.597 1080 350.806C960 292 840 189.597 720 160.195C600 131.806 480 175.403 360 175.403C240 175.403 120 131.806 60 109.5L3.06684e-05 87.1945L3.82912e-05 2.66991e-05L60 3.19445e-05C120 3.71898e-05 240 4.76806e-05 360 5.81713e-05C480 6.8662e-05 600 7.91528e-05 720 8.96435e-05C840 0.000100134 960 0.000110625 1080 0.000121116C1200 0.000131606 1320 0.000142097 1380 0.000147343L1440 0.000152588L1440 438Z" fill="#222A31"/>
</svg>
