<svg width="26" height="26" viewBox="0 0 26 26" fill="none" xmlns="http://www.w3.org/2000/svg">
<path fill-rule="evenodd" clip-rule="evenodd" d="M12.6894 0C9.24349 0 8.81103 0.0150675 7.4576 0.076659C6.10682 0.138515 5.18479 0.352367 4.37802 0.66614C3.5435 0.990223 2.83559 1.42374 2.13033 2.12927C1.42454 2.83453 0.991016 3.54244 0.665876 4.3767C0.35131 5.18374 0.137193 6.10602 0.0763947 7.45628C0.0158605 8.80971 0 9.24243 0 12.6884C0 16.1343 0.0153318 16.5655 0.076659 17.9189C0.138779 19.2697 0.352632 20.1917 0.666141 20.9985C0.990488 21.833 1.42401 22.5409 2.12954 23.2462C2.83453 23.952 3.54244 24.3866 4.37644 24.7106C5.18374 25.0244 6.10602 25.2383 7.45654 25.3001C8.80997 25.3617 9.24217 25.3768 12.6879 25.3768C16.1341 25.3768 16.5652 25.3617 17.9187 25.3001C19.2694 25.2383 20.1925 25.0244 20.9998 24.7106C21.8341 24.3866 22.5409 23.952 23.2459 23.2462C23.9517 22.5409 24.3852 21.833 24.7104 20.9988C25.0223 20.1917 25.2364 19.2694 25.2999 17.9192C25.3607 16.5658 25.3765 16.1343 25.3765 12.6884C25.3765 9.24243 25.3607 8.80997 25.2999 7.45654C25.2364 6.10576 25.0223 5.18374 24.7104 4.37697C24.3852 3.54244 23.9517 2.83453 23.2459 2.12927C22.5401 1.42348 21.8343 0.989959 20.999 0.66614C20.1901 0.352367 19.2676 0.138515 17.9168 0.076659C16.5634 0.0150675 16.1325 0 12.6855 0H12.6894ZM11.5511 2.28652C11.889 2.28599 12.2659 2.28652 12.6894 2.28652C16.0772 2.28652 16.4787 2.29868 17.8166 2.35948C19.0537 2.41605 19.7251 2.62276 20.1724 2.79643C20.7645 3.02641 21.1867 3.30132 21.6305 3.74542C22.0746 4.18951 22.3495 4.61246 22.58 5.20458C22.7537 5.65132 22.9606 6.32275 23.0169 7.55987C23.0777 8.89743 23.091 9.29923 23.091 12.6854C23.091 16.0717 23.0777 16.4735 23.0169 17.811C22.9604 19.0481 22.7537 19.7196 22.58 20.1663C22.35 20.7584 22.0746 21.1801 21.6305 21.6239C21.1864 22.068 20.7648 22.3429 20.1724 22.5729C19.7256 22.7473 19.0537 22.9535 17.8166 23.0101C16.479 23.0709 16.0772 23.0841 12.6894 23.0841C9.30133 23.0841 8.89979 23.0709 7.56223 23.0101C6.32511 22.953 5.65368 22.7463 5.20615 22.5726C4.61403 22.3426 4.19108 22.0677 3.74699 21.6236C3.30289 21.1795 3.02798 20.7576 2.79747 20.1653C2.6238 19.7185 2.41682 19.0471 2.36052 17.81C2.29972 16.4724 2.28756 16.0706 2.28756 12.6823C2.28756 9.29395 2.29972 8.89426 2.36052 7.55669C2.41708 6.31958 2.6238 5.64815 2.79747 5.20088C3.02745 4.60876 3.30289 4.18581 3.74699 3.74172C4.19108 3.29762 4.61403 3.02271 5.20615 2.7922C5.65342 2.61774 6.32511 2.41155 7.56223 2.35472C8.73273 2.30185 9.18634 2.28599 11.5511 2.28335V2.28652ZM19.4624 4.39332C18.6218 4.39332 17.9398 5.07453 17.9398 5.9154C17.9398 6.75601 18.6218 7.43801 19.4624 7.43801C20.303 7.43801 20.985 6.75601 20.985 5.9154C20.985 5.0748 20.303 4.39332 19.4624 4.39332ZM12.6895 6.17234C9.09099 6.17234 6.17345 9.08988 6.17345 12.6884C6.17345 16.2868 9.09099 19.203 12.6895 19.203C16.288 19.203 19.2044 16.2868 19.2044 12.6884C19.2044 9.08988 16.288 6.17234 12.6895 6.17234ZM12.6894 8.45889C15.0251 8.45889 16.9189 10.3524 16.9189 12.6884C16.9189 15.0241 15.0251 16.9178 12.6894 16.9178C10.3534 16.9178 8.45996 15.0241 8.45996 12.6884C8.45996 10.3524 10.3534 8.45889 12.6894 8.45889Z" fill="white"/>
</svg>
