<svg width="19" height="19" viewBox="0 0 19 19" fill="none" xmlns="http://www.w3.org/2000/svg">
<path d="M18.3011 14.5476L12.9927 9.23837L17.9187 4.31237C18.8506 3.38163 18.8506 1.87196 17.9187 0.940418C16.9875 0.00927912 15.4779 0.00968262 14.5475 0.940418L9.62073 5.86642L4.45307 0.698354C3.52153 -0.232785 2.01185 -0.232785 1.08112 0.698354C0.150382 1.6299 0.150382 3.13876 1.08112 4.0703L6.24918 9.23837L0.698657 14.7885C-0.232886 15.7204 -0.232886 17.2293 0.698657 18.1608C1.6298 19.0916 3.13907 19.0916 4.0698 18.1608L9.62073 12.6103L14.93 17.9196C15.8611 18.8507 17.3704 18.8507 18.3011 17.9196C19.2331 16.9876 19.2327 15.478 18.3011 14.5476Z" fill="white"/>
</svg>
