<svg width="25" height="41" viewBox="0 0 25 41" fill="none" xmlns="http://www.w3.org/2000/svg">
<path d="M1.15817 23.4124C1.36408 23.6198 1.59206 23.7948 1.82886 23.947L17.7203 39.8377C19.2712 41.3872 21.7848 41.3879 23.3365 39.837C24.8875 38.2867 24.8875 35.7724 23.3366 34.2207L9.64991 20.5355L23.4057 6.77824C24.9574 5.22874 24.9574 2.71365 23.4057 1.16194C22.6298 0.387558 21.6142 -2.96019e-07 20.5986 -3.9775e-07C19.583 -4.9948e-07 18.5652 0.387561 17.7916 1.16341L1.82886 17.1239C1.59206 17.2762 1.36482 17.4505 1.15817 17.6586C0.363931 18.4528 -0.01701 19.4956 0.000640523 20.5355C-0.0177445 21.5761 0.363931 22.6204 1.15817 23.4124Z" fill="white"/>
</svg>
