<svg width="25" height="41" viewBox="0 0 25 41" fill="none" xmlns="http://www.w3.org/2000/svg">
<path d="M23.4113 17.5876C23.2054 17.3802 22.9774 17.2052 22.7406 17.053L6.84921 1.16231C5.29823 -0.387191 2.78462 -0.387927 1.23291 1.16304C-0.318063 2.71328 -0.318063 5.22764 1.23291 6.77934L14.9196 20.4645L1.16378 34.2218C-0.387927 35.7713 -0.387927 38.2864 1.16378 39.8381C1.93963 40.6124 2.95523 41 3.97083 41C4.98642 41 6.00422 40.6124 6.77787 39.8366L22.7406 23.8761C22.9774 23.7238 23.2046 23.5495 23.4113 23.3414C24.2055 22.5472 24.5865 21.5044 24.5688 20.4645C24.5872 19.4239 24.2055 18.3796 23.4113 17.5876Z" fill="white"/>
</svg>
