<svg width="142" height="49" viewBox="0 0 142 49" fill="none" xmlns="http://www.w3.org/2000/svg">
<g opacity="0.2">
<path d="M142 13.4801V7.32984C141.994 5.38772 141.227 3.52689 139.866 2.1536C138.505 0.780309 136.661 0.00612072 134.736 6.10352e-05L118.048 6.10352e-05V49H134.736C136.662 48.994 138.506 48.2192 139.867 46.8449C141.228 45.4706 141.995 43.6086 142 41.6657V29.454C142.009 28.2097 141.708 26.9832 141.124 25.8871C140.541 24.791 139.693 23.8605 138.66 23.1812L136.107 21.464L138.66 19.8127C139.689 19.1141 140.531 18.1712 141.113 17.0669C141.695 15.9627 142 14.731 142 13.4801ZM134.337 41.2735H125.64V28.4644L129.239 26.0855L134.337 29.5183V41.2735ZM134.337 13.4066L125.64 19.2168V7.72811H134.337V13.4066Z" fill="url(#paint0_linear)"/>
<path d="M112.684 6.10352e-05V41.3593C112.684 43.3852 111.886 45.328 110.466 46.7606C109.047 48.1931 107.122 48.9981 105.114 48.9985H95.9957C94.5779 49.0105 93.1884 48.5973 92.0036 47.8113C90.7604 48.6018 89.2561 48.9985 87.6213 48.9985H79.7022C78.7475 49.0007 77.8018 48.8126 76.9194 48.4448C76.037 48.077 75.2352 47.5369 74.5603 46.8555C73.8854 46.1741 73.3505 45.3649 72.9864 44.4742C72.6224 43.5836 72.4363 42.6291 72.4389 41.6657V6.10352e-05H80.0954V41.3409H88.7324V19.2168H96.3889V41.3409H105.093V6.10352e-05H112.684Z" fill="url(#paint1_linear)"/>
<path d="M50.7142 7.72657V13.4066L63.6061 21.9848C64.6655 22.6944 65.5357 23.6559 66.1403 24.7848C66.7449 25.9136 67.0652 27.1751 67.073 28.4583V41.6657C67.0682 43.6091 66.3012 45.4716 64.9395 46.8459C63.5779 48.2203 61.7325 48.9948 59.8067 49H43.123V41.2735H59.415V28.4644L46.5232 19.8127C45.4746 19.1131 44.6148 18.1613 44.0212 17.0431C43.4277 15.9248 43.119 14.6751 43.123 13.4066V7.32983C43.1208 6.36664 43.3072 5.41251 43.6714 4.52222C44.0357 3.63192 44.5706 2.82301 45.2455 2.14194C45.9204 1.46086 46.722 0.921039 47.6042 0.553471C48.4864 0.185902 49.4319 -0.00217191 50.3864 4.99767e-05H67.073V7.72657H50.7142Z" fill="url(#paint2_linear)"/>
<path d="M36.5822 20.0762L37.7586 12.3497H31.9328L33.765 0.00012207H26.1753L24.2779 12.3497H16.7519L18.6478 0.00012207H10.9914L9.16074 12.3497H3.59902L2.48486 20.0762H7.98282L6.67892 28.8612H1.1764L0 36.5847H5.49493L3.6643 48.9924H11.3192L13.1529 36.5847H20.6773L18.7799 48.9924H26.4364L28.2685 36.5847H34.0913L35.2707 28.8612H29.4479L30.7594 20.0762H36.5822ZM21.9569 28.8612H14.4932L15.8017 20.0762H23.2624L21.9569 28.8612Z" fill="url(#paint3_linear)"/>
</g>
<defs>
<linearGradient id="paint0_linear" x1="118.048" y1="24.5001" x2="142" y2="24.5001" gradientUnits="userSpaceOnUse">
<stop stop-color="#34AC81"/>
<stop offset="1" stop-color="#33AC71"/>
</linearGradient>
<linearGradient id="paint1_linear" x1="72.4389" y1="24.5" x2="112.684" y2="24.5" gradientUnits="userSpaceOnUse">
<stop stop-color="#35A9A1"/>
<stop offset="1" stop-color="#34AA86"/>
</linearGradient>
<linearGradient id="paint2_linear" x1="43.123" y1="24.5" x2="67.073" y2="24.5" gradientUnits="userSpaceOnUse">
<stop stop-color="#29ABE2"/>
<stop offset="1" stop-color="#36A9A6"/>
</linearGradient>
<linearGradient id="paint3_linear" x1="0" y1="24.5001" x2="37.7556" y2="24.5001" gradientUnits="userSpaceOnUse">
<stop stop-color="#39A5D5"/>
<stop offset="1" stop-color="#37A7BC"/>
</linearGradient>
</defs>
</svg>
